<?xml version="1.0" encoding="UTF-8"?>
<svg width="1024px" height="1024px" viewBox="0 0 1024 1024" version="1.1" xmlns="http://www.w3.org/2000/svg" xmlns:xlink="http://www.w3.org/1999/xlink">
    <!-- Generator: Sketch 57.1 (83088) - https://sketch.com -->
    <title>Fire Icon</title>
    <desc>Created with Sketch.</desc>
    <g id="Page-1" stroke="none" stroke-width="1" fill="none" fill-rule="evenodd">
        <g id="Fire-Icon">
            <path d="M200,0 L824,0 C934.45695,-2.02906125e-14 1024,89.54305 1024,200 L1024,824 C1024,934.45695 934.45695,1024 824,1024 L200,1024 C89.54305,1024 1.3527075e-14,934.45695 0,824 L0,200 C-1.3527075e-14,89.54305 89.54305,2.02906125e-14 200,0 Z" id="App-Boundaries" fill="#FFFFFF"></path>
            <path d="M211,646.355914 C211,812.398212 345.763029,947 512,947 C678.236971,947 813,812.398212 813,646.355914 C813,479.331632 729.388994,345.711828 785.487058,228.795209 C785.487058,228.795209 695.943076,245.498394 645.777988,379.116306 C645.777988,379.116306 512,228.256518 549.46888,77 C549.46888,77 449.551867,138.257335 418.327801,292.00594 C391.046845,426.338504 349.634855,468.254342 349.634855,468.254342 C349.634855,317.933245 260.558909,262.199687 260.558909,262.199687 C294.611006,445.927154 211,496.034817 211,646.355914 Z" id="Path" fill="#5040FF" fill-rule="nonzero"></path>
            <path d="M728,696.052009 C728,820.838299 631.47088,927.367233 506.478409,924.959981 C388.849563,922.698108 301.331568,833.363563 310.685055,716.669416 C314.859604,664.585919 359.183553,553.794979 423.886228,468.378119 L472.694611,529.510557 C471.300572,423.955852 511.052066,275 511.052066,275 C543.956668,422.801509 728,461.111747 728,696.052009 Z" id="Path" fill="#40FF80" fill-rule="nonzero"></path>
            <path d="M429.250492,569.152973 C412.499696,669.307838 379,705.770592 379,769.460811 C379,836.231351 438.995858,903 513.000681,903 L513.000681,903 C587.540587,903 647.206287,842.306901 647,768.023706 C646.439713,568.515731 529.751477,469 529.751477,469 C546.502274,569.154864 496.251782,619.230406 496.251782,619.230406 C475.318978,587.94312 429.250492,569.152973 429.250492,569.152973 Z" id="Path" fill="#FFFF99" fill-rule="nonzero"></path>
            <ellipse id="Oval" fill="#FF8080" cx="513" cy="775" rx="88" ry="89"></ellipse>
        </g>
    </g>
</svg>